PathFileType	4	(X/Y/Z)	RBDS09\RBDS09runT25.trc
DataRate	CameraRate	NumFrames	NumMarkers	Units	OrigDataRate	OrigDataStartFrame	OrigNumFrames
150.000000	150.000000	4	33	mm	150.000000	562	4500
Frame#	Time	L.ASIS			L.Heel.Bottom			L.Heel.Lateral			L.Heel.Top			L.Iliac.Crest			L.MT1			L.MT5			L.PSIS			L.Shank.Bottom.Lateral			L.Shank.Bottom.Medial			L.Shank.Top.Lateral			L.Shank.Top.Medial			L.Thigh.Bottom.Lateral			L.Thigh.Bottom.Medial			L.Thigh.Top.Lateral			L.Thigh.Top.Medial			R.ASIS			R.ASY			R.Heel.Bottom			R.Heel.Lateral			R.Heel.Top			R.Iliac.Crest			R.MT1			R.MT5			R.PSIS			R.Shank.Bottom.Lateral			R.Shank.Bottom.Medial			R.Shank.Top.Lateral			R.Shank.Top.Medial			R.Thigh.Bottom.Lateral			R.Thigh.Bottom.Medial			R.Thigh.Top.Lateral			R.Thigh.Top.Medial			
		X1	Y1	Z1	X2	Y2	Z2	X3	Y3	Z3	X4	Y4	Z4	X5	Y5	Z5	X6	Y6	Z6	X7	Y7	Z7	X8	Y8	Z8	X9	Y9	Z9	X10	Y10	Z10	X11	Y11	Z11	X12	Y12	Z12	X13	Y13	Z13	X14	Y14	Z14	X15	Y15	Z15	X16	Y16	Z16	X17	Y17	Z17	X18	Y18	Z18	X19	Y19	Z19	X20	Y20	Z20	X21	Y21	Z21	X22	Y22	Z22	X23	Y23	Z23	X24	Y24	Z24	X25	Y25	Z25	X26	Y26	Z26	X27	Y27	Z27	X28	Y28	Z28	X29	Y29	Z29	X30	Y30	Z30	X31	Y31	Z31	X32	Y32	Z32	X33	Y33	Z33	

563	3.746666666666667	2197.820841372271	1019.81005967416	875.4133441276872	2216.817029102707	61.53186129495002	946.8492368889929	2240.814827773086	79.11384669042771	898.2145868034349	2216.81990048272	110.6467119180718	939.1568984296512	2127.038248212325	1087.660025534063	838.4028536225642	2428.361566989435	107.8045664176116	948.2196075902352	2380.09074803909	81.09557240184242	852.1158305212023	2041.497407266774	1043.422200457721	953.5855312969965	2241.789413433688	222.6331870409944	869.4655969840361	2213.000881893768	220.1203834592923	915.1278053779263	2221.11199444789	298.9349978911102	858.8195341519788	2192.401988035232	297.9249404925657	904.7869098683612	2182.270780267083	647.6845018882765	839.552023861615	2136.76634071768	631.3867831139039	894.9784630052553	2135.857873842494	747.7714406181013	833.1357257161792	2094.62694595657	733.2474482639622	887.1233998147695	2203.434085117005	1002.853050293919	1105.022750740595	1762.892364428124	183.9477218948169	1048.128742449234	1620.920477092044	294.8299803451775	1016.715051065532	1647.614135949303	272.2575671387405	1065.60012522099	1665.308238633806	312.3844320992869	1027.177703754297	2165.519570721734	1082.466364753441	1137.649440707752	1755.587198091827	133.5589375015796	991.7669241520401	1704.694640753579	140.5571570772288	1091.640195348522	2045.606829689036	1042.404200655402	1029.76077101403	1744.148765751077	347.0228326842307	1083.064966831844	1735.498114630367	364.7423335309923	1035.543996383826	1794.439325443292	414.0828645929332	1096.401263188315	1782.409724277007	429.3829151656144	1046.724987747015	2038.866112074394	625.500034682677	1126.78102671177	1978.706833982156	641.6633937507079	1087.648683578707	2053.98536472096	733.2766287529663	1144.409283084513	1999.077019669877	748.2392024588878	1105.674013280701	
564	3.753333333333333	2197.542546057351	1018.382602295868	874.5402338372064	2221.039813162086	57.54598382351816	948.9187827161817	2244.951880201726	75.29140912292102	900.2729802792395	2220.484438602545	106.6538812518322	941.0836267726238	2126.502956311155	1085.268120118897	838.1707520895881	2431.993888512108	106.0523599480342	950.522355180152	2384.222210538423	78.73657230545416	854.3953930106387	2041.530691802586	1041.183647163001	954.1790779043548	2243.43466958178	219.1956058936065	871.5623493172403	2214.682720404044	216.0677305910263	917.2619789109227	2221.316379984084	295.1488006023776	861.1688814987963	2192.594287552349	293.5316395400223	907.1697788173947	2178.49848932275	644.5864188747502	841.6572697114075	2133.725255686164	629.6276881174593	898.1043480137349	2133.371903919517	745.2571481006896	834.8568116428595	2092.820464265523	731.9246672162711	889.6919209100043	2204.219304105158	1002.460616885701	1104.486966235762	1756.871844196163	192.5889783489367	1049.403409079423	1619.163180539004	308.1924300849597	1017.769702955624	1645.198503750928	284.952367133248	1066.701511059261	1664.197868348563	324.1449614692135	1028.03860512243	2163.922392953673	1082.413987590595	1137.749320766356	1747.973727280014	142.1218428963112	993.1789271479893	1697.560993182596	151.579637652241	1093.229117830869	2046.034465608245	1040.406128371004	1030.407121265193	1744.85938480886	355.5356661174494	1084.036215365721	1736.875578121367	373.5612603532116	1036.542252846569	1798.055557814298	420.3926491072704	1097.153856967434	1786.559299024335	436.1959182804181	1047.588156428018	2047.283919696039	621.0897399379983	1126.859070100834	1986.879498703192	636.0258447209757	1087.709499737214	2059.908842622702	729.1855256324842	1144.779812806367	2004.527355493727	743.0127050955751	1106.225106246181	
565	3.76	2197.18144723645	1016.503584441593	873.5880068061509	2222.526688963215	53.97243643420158	951.0858274706242	2246.502330666436	71.73307411288879	902.4593909975646	2221.822092148404	103.0567308544685	943.1681951647583	2125.838761999643	1082.437471689259	837.9023429754795	2433.176942893259	102.918324407306	953.1826459751697	2385.794156164433	75.6160385672035	856.9365887253274	2041.4858579263	1038.407368537214	954.7395608837638	2243.612390847336	215.6453448621438	873.7450787479733	2214.862615100481	212.1097499245685	919.461405371124	2220.573942757897	291.3790412241346	863.5168308650783	2191.836143457391	289.3448004775735	909.5434379581262	2175.112887954732	641.2811152308301	843.7527896127493	2130.981350134721	627.5266577402704	901.0450301274482	2131.145671340929	742.4591744851815	836.5423606167217	2091.204103791878	730.1925284757335	892.1024038356948	2204.896483572456	1001.54285612134	1103.943106334369	1751.871140816792	201.4093354074839	1051.194840349797	1618.968810781151	321.6246049211752	1018.264178596312	1644.125630622751	297.9354704769939	1067.429302906422	1664.589265700563	335.9207153536067	1028.433502720262	2162.158588587616	1081.592736409764	1137.975222198905	1741.489760438754	150.6821265934602	995.3277172717486	1691.399157073084	163.1296529113126	1095.225347683403	2046.381726374196	1037.800559253202	1030.999968938856	1746.725633546982	364.0790838980184	1084.798053753157	1739.567930646562	382.2234485080106	1037.258027889834	1802.711878047712	426.6303793505955	1097.633712335559	1791.943257850756	442.7466884983552	1048.11021070922	2055.858337430451	616.1641806134948	1126.993543077973	1995.516104156498	629.7287451673581	1087.447872081465	2065.820932238699	724.5939667585483	1145.001374258587	2010.21535322957	737.1215714612882	1106.274895713758	
566	3.766666666666667	2196.760609933473	1014.154748476108	872.5782654050672	2221.315878237266	50.6908032431274	953.3660530143381	2245.508223648097	68.34785505776816	904.8049341667675	2220.852121415288	99.74282133787833	945.4515396051712	2125.066429911776	1079.204222121409	837.6044832575373	2431.978539707354	98.42583486784274	956.2680741142407	2384.877954850528	71.74960842448331	859.7890765695296	2041.373930047409	1035.10048159245	955.2563093113775	2242.363341946546	211.8741033583524	876.0351116026415	2213.552034591693	208.1586046746144	921.7260315505466	2218.925539562133	287.5257997113343	865.8365439891013	2190.142550654803	285.2897980221077	911.8619854421503	2172.167257928851	637.7322164717928	845.7713657169016	2128.559154947474	625.0248509005097	903.7191174497476	2129.222261160035	739.3409824268252	838.1394930659081	2089.799581058125	728.0029565927704	894.2943749710147	2205.468489039897	1000.075994530298	1103.393786780945	1748.021215651326	210.3712389477443	1053.482918986132	1620.400759893336	334.9933737675455	1018.217772522302	1644.482385524732	311.1065784114055	1067.798216417127	1666.539171589007	347.595311473683	1028.369340759278	2160.345640572279	1079.987881012776	1138.299270513046	1736.214207305389	159.2011260391859	998.2330547217482	1686.364586862616	175.1580925682225	1097.642097187668	2046.650136940718	1034.601028442467	1031.531467887371	1749.791005352864	372.5828729268385	1085.361729542714	1743.590241059683	390.6367017686661	1037.70232606713	1808.432093744822	432.7391503159706	1097.853442575033	1798.553521433923	448.9522633608235	1048.300284240237	2064.50685917937	610.8100169073399	1127.235043731943	2004.539746925807	622.8789473134458	1086.924304145077	2071.672097986374	719.5678708163319	1145.111839623156	2016.099258390727	730.6529395598326	1105.872366359801	
